<svg version="1.2" xmlns="http://www.w3.org/2000/svg" viewBox="0 0 800 800" width="800" height="800">
	<title>canies-submark-logo-light-4k</title>
	<style>
		.s0 { fill: #000000 } 
	</style>
	<g id="Layer 1">
		<g id="Layer 1">
			<g id="Folder 1">
				<path id="Shape 2" fill-rule="evenodd" class="s0" d="m360.5 167c0 0-165-1.4-209.1 190.6-50.2 218.3 55.1 266 77.4 271.3 8 1.9 74.3 19 127.2-33.9 46.5-46.5 41.1-99 33.1-115.7-4.8-10.2-39.4-35.2 2.2-76.8 23.5-23.5 40.1-58.2 20.2-85-8-10.8-16.3-18.5-28-28.6-57-48.8-33.1-116.1-23-121.9z"/>
				<path id="Shape 2 copy" fill-rule="evenodd" class="s0" d="m421.4 163c0 0 183.1 5.8 227.2 197.8 50.2 218.3-55.2 266-77.5 271.3-8 1.9-74.2 19-127.2-33.9-46.4-46.5-24.1-99.5-33.1-115.7-11.7-21.3-38-39.2-2.2-76.8 24.5-25.7 59.9-72.3 24.5-121.4-10-13.9-15.1-19.1-23.9-31.7-36.8-52.3 3.4-72.5 12.2-89.6z"/>
			</g>
		</g>
	</g>
</svg>